<svg width="32" height="32" viewBox="0 0 32 32" fill="none" xmlns="http://www.w3.org/2000/svg" xmlns:xlink="http://www.w3.org/1999/xlink">
<line x1="4" y1="14.5" x2="28" y2="14.5" stroke="#FFFFFF" stroke-width="1.5" stroke-miterlimit="3.999327" stroke-linecap="round" stroke-linejoin="round"/>
<path d="M21.061,6.939C20.475,6.354 19.525,6.354 18.939,6.939C18.354,7.525 18.354,8.475 18.939,9.061L21.061,6.939ZM28,16L29.061,17.061C29.646,16.475 29.646,15.525 29.061,14.939L28,16ZM18.939,22.939C18.354,23.525 18.354,24.475 18.939,25.061C19.525,25.646 20.475,25.646 21.061,25.061L18.939,22.939ZM18.939,9.061L26.939,17.061L29.061,14.939L21.061,6.939L18.939,9.061ZM26.939,14.939L18.939,22.939L21.061,25.061L29.061,17.061L26.939,14.939Z" fill="#FFFFFF"/>
</svg>
