<svg width="40" height="24" viewBox="0 0 40 24" fill="none" xmlns="http://www.w3.org/2000/svg" xmlns:xlink="http://www.w3.org/1999/xlink">
<path d="M38.945,1.365C38.945,0.099 37.99,-0.928 36.812,-0.928L34.678,-0.928C33.5,-0.928 32.545,0.099 32.545,1.365L32.545,21.233C32.545,22.499 33.5,23.525 34.678,23.525L36.812,23.525C37.99,23.525 38.945,22.499 38.945,21.233L38.945,1.365ZM24.077,3.963L26.21,3.963C27.388,3.963 28.343,5.014 28.343,6.31L28.343,21.178C28.343,22.474 27.388,23.525 26.21,23.525L24.077,23.525C22.899,23.525 21.943,22.474 21.943,21.178L21.943,6.31C21.943,5.014 22.899,3.963 24.077,3.963ZM15.413,9.261L13.28,9.261C12.102,9.261 11.146,10.325 11.146,11.638L11.146,21.148C11.146,22.461 12.102,23.525 13.28,23.525L15.413,23.525C16.591,23.525 17.546,22.461 17.546,21.148L17.546,11.638C17.546,10.325 16.591,9.261 15.413,9.261ZM4.812,14.152L2.678,14.152C1.5,14.152 0.545,15.201 0.545,16.495L0.545,21.182C0.545,22.476 1.5,23.525 2.678,23.525L4.812,23.525C5.99,23.525 6.945,22.476 6.945,21.182L6.945,16.495C6.945,15.201 5.99,14.152 4.812,14.152Z" clip-rule="evenodd" fill-rule="evenodd" fill="#FFFFFF"/>
</svg>
