<svg width="592" height="236" viewBox="0 0 592 236" fill="none" xmlns="http://www.w3.org/2000/svg" xmlns:xlink="http://www.w3.org/1999/xlink">
<line x1="0" y1="-2" x2="592" y2="-2" stroke="#FFFFFF" stroke-opacity="0.1" stroke-width="1" stroke-miterlimit="3.999327" style="mix-blend-mode:overlay"/>
<line x1="0" y1="76" x2="592" y2="76" stroke="#FFFFFF" stroke-opacity="0.1" stroke-width="1" stroke-miterlimit="3.999327" style="mix-blend-mode:overlay"/>
<line x1="0" y1="154" x2="592" y2="154" stroke="#FFFFFF" stroke-opacity="0.1" stroke-width="1" stroke-miterlimit="3.999327" style="mix-blend-mode:overlay"/>
<line x1="0" y1="231.516" x2="592" y2="231.516" stroke="#FFFFFF" stroke-opacity="0.1" stroke-width="1" stroke-miterlimit="3.999327" style="mix-blend-mode:overlay"/>
<path d="M116,75C88,75 80,155 39,155C-2,155 1,214 1,214L0,234L585,231C585,231 536,154 506,154C476,154 462.434,197 426,197C388,197 401.106,127 365,127C293,127 308,39 280,39C252,39 243,157 193,157C155,157 144,75 116,75Z" fill="url(#pf_0_148_6217)"/>
<path d="M39,156C49.621,156 58.055,150.805 65.124,143.18C72.175,135.574 77.946,125.468 83.258,115.469C88.598,105.418 93.458,95.51 98.737,88.079C104.034,80.623 109.523,76 116,76L116,74C108.477,74 102.466,79.377 97.107,86.921C91.729,94.49 86.777,104.582 81.492,114.531C76.179,124.532 70.512,134.426 63.657,141.82C56.82,149.195 48.88,154 39,154L39,156ZM116,76C122.477,76 128.153,80.746 133.69,88.399C139.202,96.016 144.346,106.18 149.869,116.473C155.365,126.716 161.227,137.065 168.127,144.851C175.034,152.646 183.097,158 193,158L193,156C183.903,156 176.341,151.104 169.624,143.524C162.898,135.935 157.135,125.784 151.631,115.527C146.154,105.32 140.924,94.984 135.31,87.226C129.723,79.504 123.523,74 116,74L116,76ZM193,158C205.951,158 216.149,150.343 224.549,139.163C232.947,127.988 239.675,113.13 245.677,98.377C251.701,83.565 256.979,68.902 262.519,57.887C265.285,52.385 268.077,47.876 271.003,44.754C273.927,41.634 276.885,40 279.999,40L279.999,38C276.115,38 272.667,40.053 269.543,43.387C266.423,46.717 263.527,51.427 260.731,56.988C255.145,68.098 249.799,82.935 243.823,97.623C237.825,112.37 231.177,127.012 222.951,137.962C214.727,148.907 205.049,156 193,156L193,158ZM279.999,40C286.329,40 290.405,44.919 294.055,53.155C295.861,57.233 297.511,62.003 299.269,67.166C301.019,72.314 302.871,77.841 305.071,83.37C309.467,94.422 315.287,105.59 324.611,113.993C333.967,122.421 346.773,128 364.999,128L364.999,126C347.227,126 334.909,120.579 325.951,112.507C316.963,104.41 311.283,93.578 306.929,82.63C304.753,77.159 302.917,71.686 301.161,66.522C299.409,61.372 297.733,56.517 295.883,52.345C292.221,44.081 287.671,38 279.999,38L279.999,40ZM364.999,128C373.615,128 379.287,132.138 383.591,138.498C387.943,144.926 390.835,153.531 393.843,162.324C396.825,171.041 399.921,179.94 404.701,186.643C409.527,193.413 416.115,198 425.999,198L425.999,196C416.885,196 410.861,191.837 406.329,185.482C401.751,179.06 398.741,170.459 395.735,161.676C392.757,152.969 389.781,144.074 385.247,137.377C380.669,130.612 374.437,126 364.999,126L364.999,128ZM425.999,198C444.649,198 457.411,186.971 469.089,176.236C474.965,170.837 480.543,165.528 486.521,161.551C492.477,157.59 498.757,155 505.999,155L505.999,153C498.241,153 491.577,155.785 485.413,159.886C479.273,163.972 473.557,169.413 467.735,174.764C456.023,185.529 443.785,196 425.999,196L425.999,198ZM505.999,155C513.127,155 521.579,159.606 530.367,166.805C539.109,173.966 547.999,183.536 555.981,193.139C563.957,202.737 571.003,212.338 576.057,219.543C578.581,223.144 580.609,226.145 582.003,228.245C582.701,229.294 583.239,230.119 583.603,230.68C583.785,230.96 583.925,231.175 584.017,231.32C584.063,231.392 584.099,231.447 584.121,231.483C584.133,231.501 584.143,231.515 584.147,231.524C584.151,231.528 584.153,231.532 584.155,231.534C584.155,231.535 584.155,231.536 584.155,231.536C584.157,231.537 584.157,231.537 584.999,231C585.843,230.463 585.843,230.463 585.843,230.462C585.843,230.461 585.841,230.46 585.841,230.459C585.839,230.457 585.837,230.453 585.833,230.448C585.827,230.439 585.819,230.424 585.807,230.405C585.783,230.368 585.747,230.312 585.699,230.238C585.605,230.092 585.465,229.874 585.281,229.591C584.913,229.024 584.371,228.194 583.669,227.138C582.267,225.027 580.231,222.012 577.693,218.395C572.621,211.162 565.541,201.513 557.519,191.861C549.501,182.214 540.517,172.534 531.633,165.258C522.797,158.019 513.873,153 505.999,153L505.999,155ZM1,214C1.999,213.949 1.999,213.949 1.999,213.949C1.999,213.949 1.999,213.949 1.999,213.948C1.999,213.947 1.999,213.944 1.998,213.941C1.998,213.935 1.998,213.925 1.997,213.912C1.996,213.885 1.994,213.845 1.992,213.791C1.988,213.683 1.982,213.522 1.976,213.31C1.964,212.886 1.952,212.261 1.951,211.464C1.949,209.869 1.992,207.587 2.17,204.846C2.526,199.36 3.425,192.064 5.584,184.784C7.745,177.497 11.15,170.294 16.476,164.923C21.775,159.578 29.021,156 39,156L39,154C28.479,154 20.725,157.797 15.056,163.515C9.412,169.206 5.88,176.753 3.666,184.216C1.451,191.686 0.536,199.14 0.174,204.716C-0.007,207.507 -0.051,209.834 -0.049,211.466C-0.048,212.282 -0.035,212.925 -0.023,213.365C-0.017,213.585 -0.011,213.755 -0.007,213.87C-0.004,213.928 -0.002,213.972 -0.001,214.003C0,214.018 0,214.029 0.001,214.037C0.001,214.041 0.001,214.044 0.001,214.047C0.001,214.048 0.001,214.049 0.001,214.049C0.001,214.05 0.001,214.051 1,214Z" fill="#17B9FF"/>
<circle cx="38" cy="155" r="4" fill="#FFFFFF"/>
<circle cx="116" cy="75" r="4" fill="#FFFFFF"/>
<circle cx="194" cy="157" r="4" fill="#FFFFFF"/>
<circle cx="280" cy="39" r="4" fill="#FFFFFF"/>
<circle cx="366" cy="127" r="4" fill="#FFFFFF"/>
<circle cx="426" cy="197" r="4" fill="#FFFFFF"/>
<circle cx="506" cy="155" r="4" fill="#FFFFFF"/>
<defs>
<linearGradient id="pf_0_148_6217" x1="296" y1="-106" x2="307" y2="231" gradientUnits="userSpaceOnUse">
<stop stop-color="#17B9FF"/>
<stop offset="1" stop-color="#17B9FF" stop-opacity="0"/>
</linearGradient>
</defs>
</svg>
