<svg width="94" height="96" viewBox="0 0 94 96" fill="none" xmlns="http://www.w3.org/2000/svg" xmlns:xlink="http://www.w3.org/1999/xlink">
<g filter="url(#filter148_6073)">
<rect  x="7.893" y="0" width="70.025" height="64" rx="100" stroke="url(#ps_0_148_6073)" stroke-width="4" stroke-miterlimit="3.999327"/>
</g>
<g filter="url(#filter148_6074)">
<path d="M79.729,58C79.729,72.359 65.033,84 46.904,84C28.776,84 14.08,72.359 14.08,58C14.08,43.641 28.776,32 46.904,32C65.033,32 79.729,43.641 79.729,58Z" fill="#3288F4" fill-opacity="0.46"/>
</g>
<path d="M44.767,34.081C42.93,37.774 41.797,41.839 41.498,46.078L41.057,52.32L40.288,60.935C40.092,63.14 40.124,65.359 40.386,67.557L42.121,82.147C42.264,86.328 43.238,90.362 44.917,94.05L50.368,75.716C52.579,68.278 52.579,60.357 50.368,52.919L44.774,34.103C44.772,34.096 44.769,34.089 44.767,34.081Z" clip-rule="evenodd" fill-rule="evenodd" transform="rotate(-180 46.094 64.066)" fill="url(#pf_0_148_6075)"/>
<path d="M44.767,34.081C42.93,37.774 41.797,41.839 41.498,46.078L41.057,52.32L40.288,60.935C40.092,63.14 40.124,65.359 40.386,67.557L42.121,82.147C42.264,86.328 43.238,90.362 44.917,94.05L50.368,75.716C52.579,68.278 52.579,60.357 50.368,52.919L44.774,34.103C44.772,34.096 44.769,34.089 44.767,34.081Z" clip-rule="evenodd" fill-rule="evenodd" transform="rotate(-180 46.094 64.066)" fill="#37F4FA"/>
<path d="M44.767,34.081C42.93,37.774 41.797,41.839 41.498,46.078L41.057,52.32L40.288,60.935C40.092,63.14 40.124,65.359 40.386,67.557L42.121,82.147C42.264,86.328 43.238,90.362 44.917,94.05L50.368,75.716C52.579,68.278 52.579,60.357 50.368,52.919L44.774,34.103C44.772,34.096 44.769,34.089 44.767,34.081Z" clip-rule="evenodd" fill-rule="evenodd" transform="rotate(-180 46.094 64.066)" stroke="#FFFFFF" stroke-width="1" stroke-miterlimit="3.999327" style="mix-blend-mode:overlay"/>
<path d="M0,64C-0.217,64.976 -0.217,64.976 -0.216,64.976C-0.216,64.976 -0.216,64.976 -0.215,64.977C-0.214,64.977 -0.213,64.977 -0.211,64.977C-0.208,64.978 -0.203,64.979 -0.196,64.981C-0.183,64.984 -0.163,64.988 -0.137,64.994C-0.084,65.005 -0.006,65.022 0.096,65.045C0.3,65.089 0.601,65.154 0.99,65.236C1.769,65.401 2.902,65.636 4.321,65.918C7.157,66.482 11.137,67.235 15.713,67.987C24.851,69.489 36.416,71 46,71L46,69C36.584,69 25.149,67.511 16.037,66.013C11.488,65.265 7.53,64.518 4.711,63.957C3.301,63.676 2.176,63.443 1.404,63.279C1.018,63.198 0.721,63.134 0.52,63.09C0.42,63.068 0.344,63.052 0.293,63.041C0.267,63.035 0.248,63.031 0.235,63.028C0.229,63.027 0.224,63.025 0.221,63.025C0.22,63.024 0.219,63.024 0.218,63.024C0.218,63.024 0.217,63.024 0.217,63.024C0.217,63.024 0.217,63.024 0,64ZM46,71C55.584,71 67.149,69.489 76.287,67.987C80.863,67.235 84.843,66.482 87.679,65.918C89.098,65.636 90.231,65.401 91.01,65.236C91.399,65.154 91.7,65.089 91.904,65.045C92.006,65.022 92.084,65.005 92.137,64.994C92.163,64.988 92.183,64.984 92.196,64.981C92.203,64.979 92.208,64.978 92.211,64.977C92.213,64.977 92.214,64.977 92.215,64.977C92.216,64.976 92.216,64.976 92.216,64.976C92.217,64.976 92.217,64.976 92,64C91.783,63.024 91.783,63.024 91.783,63.024C91.783,63.024 91.782,63.024 91.782,63.024C91.781,63.024 91.78,63.024 91.779,63.025C91.776,63.025 91.771,63.027 91.765,63.028C91.752,63.031 91.733,63.035 91.707,63.041C91.656,63.052 91.58,63.068 91.48,63.09C91.279,63.134 90.982,63.198 90.596,63.279C89.824,63.443 88.699,63.676 87.289,63.957C84.47,64.518 80.512,65.265 75.963,66.013C66.851,67.511 55.416,69 46,69L46,71Z" fill="url(#ps_0_148_6079)"/>
<defs>
<filter id="filter148_6073" x="7.892578" y="0" width="43.012722" height="40" filterUnits="userSpaceOnUse" color-interpolation-filters="sRGB">
<feFlood flood-opacity="0" result="BackgroundImageFix"/>
<feBlend mode="normal" in="SourceGraphic" in2="BackgroundImageFix" result="shape"/>
<feGaussianBlur stdDeviation="2" result="0foregroundblur"/>
</filter>
<linearGradient id="ps_0_148_6073" x1="42.905" y1="0" x2="43.999" y2="63" gradientUnits="userSpaceOnUse">
<stop offset="0.895" stop-color="#3342FF" stop-opacity="0"/>
<stop offset="1" stop-color="#37F4FA"/>
</linearGradient>
<filter id="filter148_6074" x="-1.919922" y="16" width="64.824429" height="58" filterUnits="userSpaceOnUse" color-interpolation-filters="sRGB">
<feFlood flood-opacity="0" result="BackgroundImageFix"/>
<feBlend mode="normal" in="SourceGraphic" in2="BackgroundImageFix" result="shape"/>
<feGaussianBlur stdDeviation="8" result="0foregroundblur"/>
</filter>
<linearGradient id="pf_0_148_6075" x1="50.448" y1="1.994" x2="95.001" y2="51.185" gradientUnits="userSpaceOnUse">
<stop stop-color="#C441F4"/>
<stop offset="1" stop-color="#00DAEA"/>
</linearGradient>
<linearGradient id="ps_0_148_6079" x1="89" y1="66.031" x2="5" y2="65.039" gradientUnits="userSpaceOnUse">
<stop stop-color="#7744FA" stop-opacity="0"/>
<stop offset="0.129" stop-color="#2B8FF3"/>
<stop offset="0.505" stop-color="#37F4FA"/>
<stop offset="0.877" stop-color="#2B8FF3"/>
<stop offset="1" stop-color="#7A41FA" stop-opacity="0"/>
</linearGradient>
</defs>
</svg>
