<svg width="56" height="64" viewBox="0 0 56 64" fill="none" xmlns="http://www.w3.org/2000/svg" xmlns:xlink="http://www.w3.org/1999/xlink">
<path d="M53.127,62.418C54.02,62.418 54.8,61.804 54.979,60.928C55.648,57.64 55.999,54.237 55.999,50.751C55.999,22.722 33.277,0 5.248,0C3.932,0 2.627,0.05 1.335,0.149C0.351,0.224 -0.391,1.056 -0.391,2.043C-0.391,3.204 0.623,4.1 1.781,4.015C2.926,3.932 4.082,3.889 5.248,3.889C31.13,3.889 52.11,24.87 52.11,50.751C52.11,53.917 51.796,57.01 51.198,60C50.951,61.232 51.87,62.418 53.127,62.418Z" fill="#3395FF"/>
</svg>
